<svg width="512" height="512" viewBox="0 0 512 512" fill="none" xmlns="http://www.w3.org/2000/svg">
<path d="M87.8525 113.432L256.336 407.833C257.702 410.22 260.192 411.736 262.942 411.807C282.951 412.321 365.725 413.197 400.557 393.922C440.324 371.916 444.584 141.21 400.557 117.075C363.77 96.9101 289.306 99.5398 265.807 100.95C261.665 101.199 258.531 104.643 258.531 108.793V216.341C258.531 220.488 252.998 221.895 251.017 218.252L189.791 105.637C188.391 103.062 185.694 101.458 182.762 101.458H94.7958C88.6509 101.458 84.8003 108.099 87.8525 113.432Z" fill="url(#paint0_linear_455_3)"/>
<defs>
<linearGradient id="paint0_linear_455_3" x1="110.113" y1="100" x2="426.611" y2="385.72" gradientUnits="userSpaceOnUse">
<stop stop-color="#00D0FF"/>
<stop offset="0.400848" stop-color="#04FBFF"/>
<stop offset="1" stop-color="#83FFD4"/>
</linearGradient>
</defs>
</svg>
